<svg xmlns="http://www.w3.org/2000/svg" version="1.1" xmlns:xlink="http://www.w3.org/1999/xlink" xmlns:svgjs="http://svgjs.dev/svgjs" width="1000" height="1000" viewBox="0 0 1000 1000"><rect width="1000" height="1000" fill="#000000"></rect><g transform="matrix(0.7,0,0,0.7,149.57575757575756,403.3923007034872)"><svg viewBox="0 0 396 109" data-background-color="#ffffff" preserveAspectRatio="xMidYMid meet" height="275" width="1000" xmlns="http://www.w3.org/2000/svg" xmlns:xlink="http://www.w3.org/1999/xlink"><g id="tight-bounds" transform="matrix(1,0,0,1,0.2400000000000091,0.2025414198436124)"><svg viewBox="0 0 395.52 108.5949171603128" height="108.5949171603128" width="395.52"><g><svg viewBox="0 0 588.3997497655573 161.55244256406624" height="108.5949171603128" width="395.52"><g transform="matrix(1,0,0,1,0,47.60119798287189)"><svg viewBox="0 0 395.52 66.35004659832246" height="66.35004659832246" width="395.52"><g id="textblocktransform"><svg viewBox="0 0 395.52 66.35004659832246" height="66.35004659832246" width="395.52" id="textblock"><g><svg viewBox="0 0 395.52 66.35004659832246" height="66.35004659832246" width="395.52"><g transform="matrix(1,0,0,1,0,0)"><svg width="395.52" viewBox="0.35 -35.7 217.94 36" height="66.35004659832246" data-palette-color="#398378"><g class="wordmark-text-0" data-fill-palette-color="primary" id="text-0"><path d="M0.35 0L14.25-35.5 19.55-35.5 33.35 0 27.45 0 23.7-9.65 10-9.65 6.3 0 0.35 0ZM11-13.8L22.6-13.8 16.9-29.35 11-13.8ZM43.35 0L37.75 0 37.75-35.5 43.35-35.5 43.35 0ZM63.95 0L51.35 0 51.35-35.5 63.95-35.5Q69.7-35.5 73.55-33.13 77.4-30.75 79.32-26.73 81.25-22.7 81.25-17.8L81.25-17.8Q81.25-12.4 79.12-8.4 77-4.4 73.09-2.2 69.2 0 63.95 0L63.95 0ZM75.55-17.8L75.55-17.8Q75.55-21.55 74.17-24.43 72.8-27.3 70.22-28.93 67.65-30.55 63.95-30.55L63.95-30.55 56.95-30.55 56.95-4.95 63.95-4.95Q67.7-4.95 70.27-6.65 72.84-8.35 74.2-11.25 75.55-14.15 75.55-17.8ZM84.89-18L84.89-18Q84.89-21.25 86.04-24.38 87.19-27.5 89.42-30.08 91.64-32.65 94.84-34.18 98.04-35.7 102.09-35.7L102.09-35.7Q106.89-35.7 110.39-33.52 113.89-31.35 115.59-27.95L115.59-27.95 111.19-25Q110.19-27.15 108.67-28.4 107.14-29.65 105.37-30.15 103.59-30.65 101.89-30.65L101.89-30.65Q99.09-30.65 96.99-29.53 94.89-28.4 93.47-26.55 92.04-24.7 91.32-22.4 90.59-20.1 90.59-17.8L90.59-17.8Q90.59-15.25 91.44-12.88 92.29-10.5 93.82-8.68 95.34-6.85 97.44-5.8 99.54-4.75 102.04-4.75L102.04-4.75Q103.74-4.75 105.59-5.35 107.44-5.95 109.02-7.23 110.59-8.5 111.49-10.6L111.49-10.6 116.14-7.95Q115.04-5.3 112.72-3.45 110.39-1.6 107.52-0.65 104.64 0.3 101.84 0.3L101.84 0.3Q98.09 0.3 94.99-1.28 91.89-2.85 89.64-5.48 87.39-8.1 86.14-11.38 84.89-14.65 84.89-18ZM144.84-35.5L150.49-35.5 150.49 0 144.84 0 144.84-15.65 126.94-15.65 126.94 0 121.34 0 121.34-35.5 126.94-35.5 126.94-20.65 144.84-20.65 144.84-35.5ZM154.84 0L168.74-35.5 174.04-35.5 187.84 0 181.94 0 178.19-9.65 164.49-9.65 160.79 0 154.84 0ZM165.49-13.8L177.09-13.8 171.39-29.35 165.49-13.8ZM218.29-35.5L218.29-30.55 206.49-30.55 206.49 0 200.84 0 200.84-30.55 188.99-30.55 188.99-35.5 218.29-35.5Z" fill="#ffffff" data-fill-palette-color="primary"></path></g></svg></g></svg></g></svg></g></svg></g><g transform="matrix(1,0,0,1,426.8473072014911,0)"><svg viewBox="0 0 161.55244256406624 161.55244256406624" height="161.55244256406624" width="161.55244256406624"><g><svg></svg></g><g id="icon-0"><svg viewBox="0 0 161.55244256406624 161.55244256406624" height="161.55244256406624" width="161.55244256406624"><g><path d="M0 80.776c0-44.611 36.165-80.776 80.776-80.776 44.611 0 80.776 36.165 80.776 80.776 0 44.611-36.165 80.776-80.776 80.776-44.611 0-80.776-36.165-80.776-80.776zM80.776 155.569c41.307 0 74.793-33.486 74.793-74.793 0-41.307-33.486-74.793-74.793-74.792-41.307 0-74.793 33.486-74.792 74.792 0 41.307 33.486 74.793 74.792 74.793z" data-fill-palette-color="accent" fill="#ffffff" stroke="transparent"></path></g><g transform="matrix(1,0,0,1,34.03117070007048,39.59351081508663)"><svg viewBox="0 0 93.49010116392527 82.36542093389298" height="82.36542093389298" width="93.49010116392527"><g><svg xmlns="http://www.w3.org/2000/svg" xmlns:xlink="http://www.w3.org/1999/xlink" version="1.1" x="0" y="0" viewBox="6.3 11.5 87.4 77" style="enable-background:new 0 0 100 100;" xml:space="preserve" height="82.36542093389298" width="93.49010116392527" class="icon-z$-0" data-fill-palette-color="accent" id="z$-0"><path d="M72.3 12.3L72.3 12.3 72.3 12.3l-0.4-0.8H28.2L6.3 50l21.8 38.5h43.7L93.7 50 72.3 12.3zM33.3 25.3L9.9 47.7l18.6-32.8L33.3 25.3zM70.7 14.8l6.4 35.7L36.9 25.8 70.7 14.8zM35.5 27.3l41 25.2-41 23.3V27.3zM77 54.5l-7.2 30.8-32.6-8.1L77 54.5zM33.5 75L9.9 50.5l23.6-22.7V75zM33.2 77.6l-4.6 7.7L11.5 55.1 33.2 77.6zM35 78.6l31.4 7.9H30.2L35 78.6zM79.3 53.3l11.6-2.5L72.1 84 79.3 53.3zM90.7 48.9l-11.4 2.5-5.9-33.1L90.7 48.9zM35 24.3l-5-10.8h38.2L35 24.3z" fill="#ffffff" data-fill-palette-color="accent"></path></svg></g></svg></g></svg></g></svg></g></svg></g><defs></defs></svg><rect width="395.52" height="108.5949171603128" fill="none" stroke="none" visibility="hidden"></rect></g></svg></g></svg>